<svg width="70" height="73" viewBox="0 0 70 73" fill="none" xmlns="http://www.w3.org/2000/svg">
<path d="M19.5082 2.02729C19.2928 2.10764 19.0773 2.18791 18.8618 2.26805C16.1428 3.32552 13.6255 4.6664 11.3615 6.41861C11.2611 6.49573 11.1606 6.57286 11.0571 6.65232C9.27159 8.02819 7.71776 9.43508 6.26981 11.1236C6.18274 11.2231 6.09566 11.3225 6.00595 11.425C0.519425 17.8983 -0.550463 25.5803 0.353087 33.5199C1.07388 39.9934 0.957094 46.3108 0.292124 52.7782C0.262857 53.0632 0.262852 53.0632 0.232994 53.354C0.196139 53.7077 0.158353 54.0614 0.119407 54.4149C-0.211951 57.5395 0.0618203 60.9866 2.02673 63.6626C2.13481 63.8104 2.24289 63.9582 2.35424 64.1104C4.62293 67.0536 7.83358 68.9251 11.6903 69.534C12.0326 69.5699 12.3757 69.5996 12.7193 69.6223C12.8816 69.6332 13.044 69.6441 13.2112 69.6553C15.7384 69.7367 18.5252 69.1307 20.6857 67.9167C21.1752 67.6559 21.3863 67.5825 21.9692 67.5344C22.6953 67.786 23.0972 68.1537 23.6552 68.6414C27.0323 71.3821 31.9345 72.3486 36.3108 72.1316C41.3146 71.71 45.5983 69.5438 48.8843 66.0684C49.1349 65.713 49.1349 65.713 49.4133 65.3296C49.7289 65.0856 49.719 65.0741 50.0383 65.059C50.8218 65.1285 51.5836 65.2918 52.3462 65.468C56.0451 66.3209 59.551 65.6561 62.8513 63.923C63.6193 63.4742 64.3113 62.9608 64.9941 62.4079C65.1109 62.3149 65.2277 62.2219 65.3481 62.1261C67.9582 59.8954 69.1771 56.7063 69.3231 53.4869C69.3715 51.2012 68.8434 49.0811 68.2188 46.8815C68.1494 46.6357 68.1494 46.6357 68.0786 46.385C67.8413 45.5513 67.5972 44.7195 67.3503 43.8882C66.2452 40.1581 65.2515 36.3995 64.2355 32.6481C64.1455 32.3158 64.0554 31.9836 63.9653 31.6513C62.8336 27.4763 62.8336 27.4763 62.3209 25.4671C60.4212 18.0264 57.3249 11.2032 50.5676 6.41861C50.3713 6.26607 50.3713 6.26607 50.1711 6.11045C45.7707 2.69944 39.7944 0.62672 34.1044 0.145292C33.9713 0.133945 33.8382 0.122598 33.701 0.110908C28.9418 -0.263807 23.9232 0.295339 19.5082 2.02729Z" fill="url(#paint0_linear_1_185)"/>
<path d="M18.3632 24.1028C20.2608 25.5374 21.1797 27.2304 21.4289 29.4835C21.4747 31.3507 20.9392 33.1702 19.6786 34.6498C18.7099 35.5586 17.9587 36.1334 16.5599 36.277C15.3018 36.1567 14.2443 35.5026 13.3988 34.6498C11.8709 32.7641 11.6402 30.663 11.8713 28.3765C12.1871 26.7742 12.8558 25.3454 14.3217 24.3871C15.652 23.6483 16.9618 23.4055 18.3632 24.1028Z" fill="black"/>
<path d="M33.2478 24.7505C34.8237 26.2625 35.3629 28.3036 35.3382 30.3487C35.1571 32.4135 34.336 34.0968 32.7088 35.5211C31.8961 36.1275 31.0739 36.3192 30.0297 36.2177C28.6493 35.9322 27.6119 35.116 26.8368 34.0416C25.6511 32.1345 25.4643 29.8246 26.0624 27.7193C26.6023 26.1456 27.4056 24.7757 29.0193 23.9675C30.5242 23.3334 32.0504 23.8083 33.2478 24.7505Z" fill="black"/>
<defs>
<linearGradient id="paint0_linear_1_185" x1="34.6631" y1="0" x2="34.6631" y2="72.161" gradientUnits="userSpaceOnUse">
<stop stop-color="white"/>
<stop offset="1" stop-color="#2E74E1"/>
</linearGradient>
</defs>
</svg>
