<svg width="854" height="273" viewBox="0 0 854 273" fill="none" xmlns="http://www.w3.org/2000/svg">
<path d="M0.178711 4.69418C104.679 -14.3058 122.143 45.0083 133.179 68.2629C161.179 127.263 221.679 163.763 248.179 160.763" stroke="black" stroke-width="2"/>
<path d="M247.679 168.911C174.679 174.411 186.179 139.411 134.179 151.911" stroke="black" stroke-width="2"/>
<path d="M15.1787 270.194C34.1787 279.194 91.7601 247.068 124.179 212.194C157.179 176.694 219.179 176.694 247.679 176.694" stroke="black" stroke-width="2"/>
<path d="M853.179 4.88885C748.679 -14.1111 731.215 45.203 720.179 68.4576C692.179 127.458 631.679 163.958 605.179 160.958" stroke="black" stroke-width="2"/>
<path d="M605.679 169.106C678.679 174.606 667.179 139.606 719.179 152.106" stroke="black" stroke-width="2"/>
<path d="M838.179 270.389C819.179 279.389 761.597 247.263 729.179 212.389C696.179 176.889 634.179 176.889 605.679 176.889" stroke="black" stroke-width="2"/>
<rect x="243.179" y="158.194" width="368" height="5" rx="1" fill="#183F7B"/>
<rect x="243.179" y="166.194" width="368" height="5" rx="1" fill="#183F7B"/>
<rect x="243.179" y="174.194" width="368" height="5" rx="1" fill="#183F7B"/>
</svg>
