<svg width="420" height="473" viewBox="0 0 420 473" fill="none" xmlns="http://www.w3.org/2000/svg">
<path d="M118.161 13.2884C116.856 13.8152 115.551 14.3413 114.245 14.8666C97.7764 21.7981 82.5293 30.5873 68.8162 42.0727C68.2078 42.5782 67.5994 43.0838 66.9726 43.6046C56.1577 52.6232 46.7462 61.845 37.976 72.9129C37.4486 73.5648 36.9212 74.2168 36.3778 74.8886C3.14614 117.32 -3.33413 167.674 2.13864 219.716C6.50448 262.149 5.79708 303.558 1.76938 345.951C1.59212 347.819 1.59209 347.819 1.41124 349.724C1.188 352.043 0.959136 354.361 0.723243 356.679C-1.28378 377.16 0.374443 399.755 12.2758 417.295C12.9305 418.264 13.5851 419.233 14.2596 420.231C28.0009 439.523 47.4477 451.79 70.808 455.781C72.8811 456.016 74.9592 456.211 77.0403 456.36C78.0236 456.431 79.0069 456.503 80.0199 456.576C95.3266 457.11 112.206 453.138 125.292 445.18C128.258 443.471 129.536 442.99 133.067 442.674C137.465 444.324 139.899 446.734 143.279 449.931C163.733 467.895 193.426 474.23 219.933 472.808C250.241 470.045 276.187 455.845 296.09 433.065C297.608 430.735 297.608 430.735 299.295 428.222C301.206 426.623 301.146 426.547 303.08 426.449C307.826 426.904 312.44 427.974 317.059 429.129C339.463 434.72 360.698 430.362 380.688 419.002C385.34 416.06 389.531 412.695 393.667 409.071C394.374 408.462 395.082 407.852 395.811 407.224C411.62 392.602 419.003 371.698 419.887 350.595C420.181 335.613 416.982 321.717 413.199 307.299C412.778 305.688 412.778 305.688 412.349 304.044C410.912 298.58 409.434 293.127 407.938 287.678C401.245 263.228 395.226 238.591 389.072 214.002C388.527 211.824 387.981 209.646 387.436 207.468C380.581 180.102 380.581 180.102 377.475 166.931C365.969 118.159 347.215 73.4344 306.286 42.0727C305.097 41.0728 305.097 41.0728 303.885 40.0528C277.232 17.6943 241.033 4.10802 206.569 0.952356C205.763 0.877981 204.957 0.803607 204.126 0.726978C175.299 -1.7292 144.902 1.93589 118.161 13.2884Z" fill="url(#paint0_linear_2002_89)"/>
<path d="M111.222 157.978C122.716 167.382 128.282 178.479 129.791 193.248C130.069 205.487 126.825 217.413 119.19 227.112C113.322 233.069 108.772 236.836 100.3 237.777C92.6796 236.989 86.2745 232.702 81.1533 227.112C71.899 214.751 70.5014 200.979 71.9012 185.991C73.8137 175.489 77.8642 166.123 86.7431 159.841C94.8008 154.999 102.734 153.407 111.222 157.978Z" fill="black"/>
<path d="M201.389 162.227C210.935 172.138 214.201 185.517 214.051 198.922C212.954 212.457 207.981 223.49 198.125 232.826C193.202 236.801 188.222 238.058 181.897 237.392C173.536 235.521 167.253 230.171 162.558 223.128C155.377 210.627 154.245 195.487 157.868 181.687C161.138 171.372 166.003 162.392 175.777 157.095C184.893 152.938 194.137 156.051 201.389 162.227Z" fill="black"/>
<defs>
<linearGradient id="paint0_linear_2002_89" x1="209.953" y1="0" x2="209.953" y2="473" gradientUnits="userSpaceOnUse">
<stop stop-color="white"/>
<stop offset="1" stop-color="#BBDFFD"/>
</linearGradient>
</defs>
</svg>
