<svg width="1056" height="180" viewBox="0 0 1056 180" fill="none" xmlns="http://www.w3.org/2000/svg">
<g filter="url(#filter0_i_7_733)">
<path d="M50.6 142.8C41.1333 142.8 32.5333 140.8 24.8 136.8C17.2 132.8 11.1333 127 6.59998 119.4C2.19998 111.8 -2.41995e-05 102.667 -2.41995e-05 92V89.4C-2.41995e-05 78.7333 2.19998 69.6667 6.59998 62.2C11.1333 54.6 17.2 48.8 24.8 44.8C32.5333 40.6667 41.1333 38.6 50.6 38.6C60.0666 38.6 68.1333 40.3333 74.8 43.8C81.4666 47.2667 86.8 51.8667 90.8 57.6C94.9333 63.3333 97.6 69.6667 98.8 76.6L78.8 80.8C78.1333 76.4 76.7333 72.4 74.6 68.8C72.4666 65.2 69.4666 62.3333 65.6 60.2C61.7333 58.0667 56.8666 57 51 57C45.2666 57 40.0666 58.3333 35.4 61C30.8666 63.5333 27.2666 67.2667 24.6 72.2C21.9333 77 20.6 82.8667 20.6 89.8V91.6C20.6 98.5333 21.9333 104.467 24.6 109.4C27.2666 114.333 30.8666 118.067 35.4 120.6C40.0666 123.133 45.2666 124.4 51 124.4C59.6666 124.4 66.2666 122.2 70.8 117.8C75.3333 113.267 78.2 107.533 79.4 100.6L99.4 105.2C97.8 112 94.9333 118.267 90.8 124C86.8 129.733 81.4666 134.333 74.8 137.8C68.1333 141.133 60.0666 142.8 50.6 142.8ZM153.359 142.8C143.493 142.8 134.693 140.8 126.959 136.8C119.359 132.667 113.359 126.8 108.959 119.2C104.559 111.6 102.359 102.6 102.359 92.2V89.2C102.359 78.8 104.559 69.8667 108.959 62.4C113.359 54.8 119.359 48.9333 126.959 44.8C134.693 40.6667 143.493 38.6 153.359 38.6C163.226 38.6 172.026 40.6667 179.759 44.8C187.493 48.9333 193.559 54.8 197.959 62.4C202.359 69.8667 204.559 78.8 204.559 89.2V92.2C204.559 102.6 202.359 111.6 197.959 119.2C193.559 126.8 187.493 132.667 179.759 136.8C172.026 140.8 163.226 142.8 153.359 142.8ZM153.359 124.4C162.426 124.4 169.759 121.533 175.359 115.8C181.093 109.933 183.959 101.867 183.959 91.6V89.8C183.959 79.5333 181.159 71.5333 175.559 65.8C169.959 59.9333 162.559 57 153.359 57C144.426 57 137.093 59.9333 131.359 65.8C125.759 71.5333 122.959 79.5333 122.959 89.8V91.6C122.959 101.867 125.759 109.933 131.359 115.8C137.093 121.533 144.426 124.4 153.359 124.4ZM214.206 140V41.4H234.406V53H237.606C239.473 49.5333 242.473 46.4667 246.606 43.8C250.74 41.1333 256.34 39.8 263.406 39.8C270.74 39.8 276.606 41.3333 281.006 44.4C285.54 47.3333 288.94 51.1333 291.206 55.8H294.406C296.673 51.2667 299.94 47.4667 304.206 44.4C308.606 41.3333 314.806 39.8 322.806 39.8C329.206 39.8 334.873 41.1333 339.806 43.8C344.74 46.3333 348.673 50.2 351.606 55.4C354.54 60.4667 356.006 66.8 356.006 74.4V140H335.406V76C335.406 70 333.74 65.4 330.406 62.2C327.206 58.8667 322.606 57.2 316.606 57.2C310.206 57.2 305.073 59.2667 301.206 63.4C297.34 67.5333 295.406 73.4667 295.406 81.2V140H274.806V76C274.806 70 273.14 65.4 269.806 62.2C266.606 58.8667 262.006 57.2 256.006 57.2C249.606 57.2 244.473 59.2667 240.606 63.4C236.74 67.5333 234.806 73.4667 234.806 81.2V140H214.206ZM369.691 140V41.4H390.291V140H369.691ZM380.091 28C376.091 28 372.691 26.7333 369.891 24.2C367.224 21.5333 365.891 18.1333 365.891 14C365.891 9.86666 367.224 6.53333 369.891 4C372.691 1.33333 376.091 -9.53674e-06 380.091 -9.53674e-06C384.224 -9.53674e-06 387.624 1.33333 390.291 4C392.957 6.53333 394.291 9.86666 394.291 14C394.291 18.1333 392.957 21.5333 390.291 24.2C387.624 26.7333 384.224 28 380.091 28ZM404.862 140V41.4H425.062V56.2H428.262C430.129 52.2 433.462 48.4667 438.262 45C443.062 41.5333 450.196 39.8 459.662 39.8C467.129 39.8 473.729 41.4667 479.462 44.8C485.329 48.1333 489.929 52.8667 493.262 59C496.596 65 498.262 72.2667 498.262 80.8V140H477.662V82.4C477.662 73.8667 475.529 67.6 471.262 63.6C466.996 59.4667 461.129 57.4 453.662 57.4C445.129 57.4 438.262 60.2 433.062 65.8C427.996 71.4 425.462 79.5333 425.462 90.2V140H404.862ZM507.109 91.2V88.2C507.109 77.8 509.176 68.9333 513.309 61.6C517.576 54.2667 523.176 48.6 530.109 44.6C537.043 40.6 544.643 38.6 552.909 38.6C562.509 38.6 569.843 40.4 574.909 44C580.109 47.6 583.909 51.4667 586.309 55.6H589.509V41.4H609.509V160.2C609.509 166.2 607.709 171 604.109 174.6C600.643 178.2 595.843 180 589.709 180H523.309V162H583.309C587.176 162 589.109 160 589.109 156V124.6H585.909C584.443 127 582.376 129.467 579.709 132C577.043 134.533 573.509 136.6 569.109 138.2C564.843 139.8 559.443 140.6 552.909 140.6C544.643 140.6 536.976 138.667 529.909 134.8C522.976 130.8 517.443 125.133 513.309 117.8C509.176 110.333 507.109 101.467 507.109 91.2ZM558.509 122.6C567.443 122.6 574.776 119.8 580.509 114.2C586.376 108.467 589.309 100.6 589.309 90.6V88.8C589.309 78.5333 586.443 70.6667 580.709 65.2C574.976 59.6 567.576 56.8 558.509 56.8C549.709 56.8 542.376 59.6 536.509 65.2C530.776 70.6667 527.909 78.5333 527.909 88.8V90.6C527.909 100.6 530.776 108.467 536.509 114.2C542.376 119.8 549.709 122.6 558.509 122.6ZM699.216 142.8C686.682 142.8 676.282 140 668.016 134.4C659.749 128.8 654.682 120.333 652.816 109L672.016 104.4C673.082 109.867 674.882 114.2 677.416 117.4C679.949 120.6 683.082 122.867 686.816 124.2C690.682 125.533 694.816 126.2 699.216 126.2C705.749 126.2 710.749 124.933 714.216 122.4C717.816 119.867 719.616 116.6 719.616 112.6C719.616 108.6 717.949 105.667 714.616 103.8C711.282 101.933 706.349 100.4 699.816 99.2L693.016 98C686.349 96.8 680.282 95.0667 674.816 92.8C669.349 90.5333 665.016 87.4 661.816 83.4C658.616 79.4 657.016 74.2667 657.016 68C657.016 58.6667 660.482 51.4667 667.416 46.4C674.349 41.2 683.549 38.6 695.016 38.6C706.082 38.6 715.149 41.1333 722.216 46.2C729.416 51.1333 734.082 57.8667 736.216 66.4L717.016 71.8C715.816 65.8 713.282 61.6 709.416 59.2C705.549 56.6667 700.749 55.4 695.016 55.4C689.416 55.4 685.016 56.4667 681.816 58.6C678.616 60.6 677.016 63.4667 677.016 67.2C677.016 71.2 678.549 74.1333 681.616 76C684.816 77.8667 689.082 79.2667 694.416 80.2L701.416 81.4C708.482 82.6 714.949 84.2667 720.816 86.4C726.682 88.5333 731.282 91.6 734.616 95.6C738.082 99.6 739.816 104.933 739.816 111.6C739.816 121.467 736.149 129.133 728.816 134.6C721.482 140.067 711.616 142.8 699.216 142.8ZM794.094 142.8C784.227 142.8 775.427 140.8 767.694 136.8C760.094 132.667 754.094 126.8 749.694 119.2C745.294 111.6 743.094 102.6 743.094 92.2V89.2C743.094 78.8 745.294 69.8667 749.694 62.4C754.094 54.8 760.094 48.9333 767.694 44.8C775.427 40.6667 784.227 38.6 794.094 38.6C803.96 38.6 812.76 40.6667 820.494 44.8C828.227 48.9333 834.294 54.8 838.694 62.4C843.094 69.8667 845.294 78.8 845.294 89.2V92.2C845.294 102.6 843.094 111.6 838.694 119.2C834.294 126.8 828.227 132.667 820.494 136.8C812.76 140.8 803.96 142.8 794.094 142.8ZM794.094 124.4C803.16 124.4 810.494 121.533 816.094 115.8C821.827 109.933 824.694 101.867 824.694 91.6V89.8C824.694 79.5333 821.894 71.5333 816.294 65.8C810.694 59.9333 803.294 57 794.094 57C785.16 57 777.827 59.9333 772.094 65.8C766.494 71.5333 763.694 79.5333 763.694 89.8V91.6C763.694 101.867 766.494 109.933 772.094 115.8C777.827 121.533 785.16 124.4 794.094 124.4ZM901.141 142.8C891.274 142.8 882.474 140.8 874.741 136.8C867.141 132.667 861.141 126.8 856.741 119.2C852.341 111.6 850.141 102.6 850.141 92.2V89.2C850.141 78.8 852.341 69.8667 856.741 62.4C861.141 54.8 867.141 48.9333 874.741 44.8C882.474 40.6667 891.274 38.6 901.141 38.6C911.007 38.6 919.807 40.6667 927.541 44.8C935.274 48.9333 941.341 54.8 945.741 62.4C950.141 69.8667 952.341 78.8 952.341 89.2V92.2C952.341 102.6 950.141 111.6 945.741 119.2C941.341 126.8 935.274 132.667 927.541 136.8C919.807 140.8 911.007 142.8 901.141 142.8ZM901.141 124.4C910.207 124.4 917.541 121.533 923.141 115.8C928.874 109.933 931.741 101.867 931.741 91.6V89.8C931.741 79.5333 928.941 71.5333 923.341 65.8C917.741 59.9333 910.341 57 901.141 57C892.207 57 884.874 59.9333 879.141 65.8C873.541 71.5333 870.741 79.5333 870.741 89.8V91.6C870.741 101.867 873.541 109.933 879.141 115.8C884.874 121.533 892.207 124.4 901.141 124.4ZM961.987 140V41.4H982.187V56.2H985.387C987.254 52.2 990.587 48.4667 995.387 45C1000.19 41.5333 1007.32 39.8 1016.79 39.8C1024.25 39.8 1030.85 41.4667 1036.59 44.8C1042.45 48.1333 1047.05 52.8667 1050.39 59C1053.72 65 1055.39 72.2667 1055.39 80.8V140H1034.79V82.4C1034.79 73.8667 1032.65 67.6 1028.39 63.6C1024.12 59.4667 1018.25 57.4 1010.79 57.4C1002.25 57.4 995.387 60.2 990.187 65.8C985.121 71.4 982.587 79.5333 982.587 90.2V140H961.987Z" fill="url(#paint0_linear_7_733)"/>
</g>
<defs>
<filter id="filter0_i_7_733" x="0" y="0" width="1055.39" height="184" filterUnits="userSpaceOnUse" color-interpolation-filters="sRGB">
<feFlood flood-opacity="0" result="BackgroundImageFix"/>
<feBlend mode="normal" in="SourceGraphic" in2="BackgroundImageFix" result="shape"/>
<feColorMatrix in="SourceAlpha" type="matrix" values="0 0 0 0 0 0 0 0 0 0 0 0 0 0 0 0 0 0 127 0" result="hardAlpha"/>
<feOffset dy="4"/>
<feGaussianBlur stdDeviation="2"/>
<feComposite in2="hardAlpha" operator="arithmetic" k2="-1" k3="1"/>
<feColorMatrix type="matrix" values="0 0 0 0 1 0 0 0 0 1 0 0 0 0 1 0 0 0 0.25 0"/>
<feBlend mode="normal" in2="shape" result="effect1_innerShadow_7_733"/>
</filter>
<linearGradient id="paint0_linear_7_733" x1="62.2172" y1="56" x2="316.161" y2="547.555" gradientUnits="userSpaceOnUse">
<stop stop-color="#B4D4FF"/>
<stop offset="1" stop-color="#1F7AFF"/>
</linearGradient>
</defs>
</svg>
