<svg xmlns="http://www.w3.org/2000/svg" width="110" height="26" viewBox="0 0 110 26" fill="none">
  <path d="M36.8146 20.8C35.4744 20.8 34.2664 20.5204 33.1905 19.9613C32.1335 19.3835 31.2936 18.5634 30.6707 17.5011C30.0667 16.4387 29.7647 15.1806 29.7647 13.7269V13.4194C29.7647 11.947 30.0667 10.6889 30.6707 9.64516C31.2936 8.58279 32.1335 7.77204 33.1905 7.2129C34.2664 6.63512 35.4744 6.34624 36.8146 6.34624C38.1358 6.34624 39.2589 6.58853 40.1838 7.07312C41.1276 7.5577 41.8637 8.20071 42.3922 9.00215C42.9396 9.80358 43.2888 10.6609 43.4398 11.5742L41.2597 12.0215C41.1653 11.3505 40.9388 10.7355 40.5802 10.1763C40.2404 9.6172 39.7591 9.16989 39.1362 8.83441C38.5133 8.49892 37.7489 8.33118 36.8429 8.33118C35.918 8.33118 35.0875 8.5362 34.3514 8.94623C33.6341 9.35627 33.0584 9.94337 32.6243 10.7075C32.209 11.4717 32.0014 12.3849 32.0014 13.4473V13.6989C32.0014 14.7613 32.209 15.6745 32.6243 16.4387C33.0584 17.2029 33.6341 17.79 34.3514 18.2C35.0875 18.61 35.918 18.8151 36.8429 18.8151C38.2208 18.8151 39.2684 18.4609 39.9856 17.7527C40.7217 17.0444 41.1747 16.1685 41.3446 15.1247L43.553 15.6C43.3454 16.4946 42.9679 17.3426 42.4205 18.1441C41.8731 18.9455 41.1276 19.5885 40.1838 20.0731C39.2589 20.5577 38.1358 20.8 36.8146 20.8Z" fill="white"/>
  <path d="M50.9329 20.8C49.5362 20.8 48.2998 20.5111 47.2239 19.9333C46.1669 19.3556 45.3364 18.5448 44.7324 17.5011C44.1473 16.4387 43.8547 15.19 43.8547 13.7548V13.3914C43.8547 11.9749 44.1473 10.7355 44.7324 9.67312C45.3364 8.61075 46.1669 7.79068 47.2239 7.2129C48.2998 6.63512 49.5362 6.34624 50.9329 6.34624C52.3297 6.34624 53.5566 6.63512 54.6136 7.2129C55.6895 7.79068 56.52 8.61075 57.1051 9.67312C57.7091 10.7355 58.0111 11.9749 58.0111 13.3914V13.7548C58.0111 15.19 57.7091 16.4387 57.1051 17.5011C56.52 18.5448 55.6895 19.3556 54.6136 19.9333C53.5566 20.5111 52.3297 20.8 50.9329 20.8ZM50.9329 18.8151C52.4052 18.8151 53.5754 18.3584 54.4437 17.4452C55.3308 16.5133 55.7744 15.2645 55.7744 13.6989V13.4473C55.7744 11.8817 55.3308 10.6423 54.4437 9.72903C53.5754 8.79713 52.4052 8.33118 50.9329 8.33118C49.4795 8.33118 48.3093 8.79713 47.4221 9.72903C46.535 10.6423 46.0914 11.8817 46.0914 13.4473V13.6989C46.0914 15.2645 46.535 16.5133 47.4221 17.4452C48.3093 18.3584 49.4795 18.8151 50.9329 18.8151Z" fill="white"/>
  <path d="M59.2049 20.4086V6.73763H61.385V9.05806H61.7814C62.0834 8.40573 62.593 7.81864 63.3102 7.29677C64.0464 6.75627 65.1223 6.48602 66.5379 6.48602C67.576 6.48602 68.5009 6.70036 69.3126 7.12903C70.1431 7.5577 70.8037 8.1914 71.2944 9.03011C71.7852 9.86882 72.0306 10.9032 72.0306 12.1333V20.4086H69.7939V12.3011C69.7939 10.9405 69.4447 9.95269 68.7463 9.33763C68.0668 8.72258 67.1419 8.41505 65.9716 8.41505C64.6315 8.41505 63.5367 8.84373 62.6874 9.70107C61.8569 10.5584 61.4416 11.8351 61.4416 13.5312V20.4086H59.2049Z" fill="white"/>
  <path d="M78.4465 20.4086C77.6538 20.4086 77.0403 20.1943 76.6062 19.7656C76.1909 19.3369 75.9833 18.7498 75.9833 18.0043V8.66667H71.8213V6.73763H75.9833V1.87312H78.22V6.73763H82.7501V8.66667H78.22V17.6688C78.22 18.228 78.4937 18.5075 79.0411 18.5075H82.1272V20.4086H78.4465Z" fill="white"/>
  <path d="M83.5417 20.4086V6.73763H85.7784V20.4086H83.5417ZM84.6742 4.6129C84.1835 4.6129 83.7682 4.45448 83.4285 4.13763C83.1076 3.82079 82.9471 3.42007 82.9471 2.93548C82.9471 2.43226 83.1076 2.02222 83.4285 1.70538C83.7682 1.38853 84.1835 1.23011 84.6742 1.23011C85.165 1.23011 85.5708 1.38853 85.8917 1.70538C86.2125 2.02222 86.373 2.43226 86.373 2.93548C86.373 3.42007 86.2125 3.82079 85.8917 4.13763C85.5708 4.45448 85.165 4.6129 84.6742 4.6129Z" fill="white"/>
  <path d="M90.3684 20.4086V8.66667H86.1215V6.73763H90.3684V3.24301C90.3684 2.49749 90.576 1.91039 90.9913 1.48172C91.4254 1.05305 92.0389 0.838709 92.8316 0.838709H96.3141V2.73978H93.4545C92.8883 2.73978 92.6051 3.01935 92.6051 3.57849V6.73763H96.9653V8.66667H92.6051V20.4086H90.3684Z" fill="white"/>
  <path d="M99.0146 26V24.043H106.942C107.49 24.043 107.763 23.7634 107.763 23.2043V18.228H107.367C107.178 18.6194 106.886 19.0107 106.489 19.4021C106.112 19.7749 105.612 20.0824 104.989 20.3247C104.366 20.5484 103.582 20.6602 102.639 20.6602C101.638 20.6602 100.713 20.4459 99.864 20.0172C99.0335 19.5885 98.3729 18.9548 97.8821 18.1161C97.4103 17.2774 97.1743 16.2523 97.1743 15.0409V6.73763H99.411V14.8731C99.411 16.2151 99.7508 17.1935 100.43 17.8086C101.129 18.4237 102.063 18.7312 103.233 18.7312C104.555 18.7312 105.64 18.3025 106.489 17.4452C107.339 16.5878 107.763 15.3111 107.763 13.6151V6.73763H110V23.5957C110 24.3412 109.783 24.9283 109.349 25.357C108.934 25.7857 108.32 26 107.508 26H99.0146Z" fill="white"/>
  <path d="M6.50862 0.722767C6.43675 0.751416 6.36486 0.780031 6.29296 0.808603C5.3858 1.18561 4.54595 1.66366 3.79059 2.28836C3.75708 2.31585 3.72357 2.34335 3.68904 2.37168C3.09332 2.86221 2.57491 3.36379 2.09183 3.96578C2.06278 4.00124 2.03372 4.0367 2.00379 4.07324C0.173299 6.38111 -0.183653 9.11987 0.117803 11.9505C0.358286 14.2584 0.31932 16.5107 0.0974629 18.8165C0.0876985 18.9181 0.0876966 18.9181 0.0777349 19.0217C0.0654387 19.1478 0.0528319 19.2739 0.0398382 19.4C-0.0707142 20.5139 0.0206257 21.7429 0.676188 22.697C0.712247 22.7496 0.748306 22.8023 0.785458 22.8566C1.54237 23.9059 2.61355 24.5731 3.90031 24.7902C4.0145 24.803 4.12897 24.8136 4.2436 24.8217C4.29776 24.8256 4.35192 24.8295 4.40772 24.8335C5.25086 24.8625 6.18065 24.6464 6.90146 24.2136C7.06479 24.1207 7.13521 24.0945 7.32969 24.0773C7.57194 24.167 7.70601 24.2981 7.89219 24.472C9.0189 25.4491 10.6545 25.7937 12.1145 25.7163C13.784 25.566 15.2132 24.7937 16.3095 23.5547C16.3931 23.428 16.3931 23.428 16.486 23.2913C16.5913 23.2043 16.588 23.2002 16.6945 23.1948C16.9559 23.2196 17.2101 23.2778 17.4645 23.3406C18.6986 23.6447 19.8683 23.4077 20.9694 22.7898C21.2256 22.6298 21.4565 22.4467 21.6843 22.2496C21.7232 22.2165 21.7622 22.1833 21.8024 22.1492C22.6732 21.3539 23.0799 20.2169 23.1286 19.0691C23.1447 18.2542 22.9685 17.4984 22.7602 16.7142C22.737 16.6265 22.737 16.6265 22.7134 16.5372C22.6342 16.2399 22.5528 15.9434 22.4704 15.647C22.1017 14.3172 21.7702 12.9771 21.4312 11.6397C21.4012 11.5212 21.3711 11.4028 21.341 11.2843C20.9635 9.79584 20.9635 9.79584 20.7924 9.0795C20.1586 6.42675 19.1256 3.99414 16.8711 2.28836C16.8056 2.23398 16.8056 2.23398 16.7388 2.1785C15.2707 0.962405 13.2768 0.223438 11.3784 0.0517991C11.334 0.0477538 11.2896 0.0437087 11.2438 0.0395408C9.65598 -0.0940523 7.98161 0.105294 6.50862 0.722767Z" fill="url(#paint0_linear_1_213)"/>
  <path d="M6.1264 8.59265C6.75949 9.10412 7.06609 9.7077 7.1492 10.511C7.1645 11.1767 6.98582 11.8253 6.56525 12.3529C6.24207 12.6769 5.99143 12.8818 5.52476 12.933C5.10501 12.8901 4.7522 12.6569 4.47011 12.3529C3.96035 11.6806 3.88337 10.9315 3.96048 10.1163C4.06583 9.54506 4.28894 9.03566 4.77801 8.694C5.22185 8.4306 5.65884 8.34405 6.1264 8.59265Z" fill="black"/>
  <path d="M11.0931 8.82372C11.6189 9.36278 11.7988 10.0905 11.7905 10.8196C11.7301 11.5558 11.4561 12.1559 10.9132 12.6637C10.6421 12.8798 10.3678 12.9482 10.0194 12.912C9.55886 12.8102 9.21275 12.5192 8.95414 12.1362C8.55857 11.4563 8.49622 10.6327 8.69578 9.88215C8.8759 9.32112 9.14393 8.83271 9.68231 8.54458C10.1844 8.3185 10.6936 8.4878 11.0931 8.82372Z" fill="black"/>
  <defs>
    <linearGradient id="paint0_linear_1_213" x1="55" y1="0" x2="55" y2="26" gradientUnits="userSpaceOnUse">
      <stop stop-color="white"/>
      <stop offset="1" stop-color="#BBDFFD"/>
    </linearGradient>
  </defs>
</svg>