<svg width="125" height="40" viewBox="0 0 125 40" fill="none" xmlns="http://www.w3.org/2000/svg">
<rect width="40" height="40" rx="5" fill="#183F7B"/>
<path d="M51.8146 27.8C50.4744 27.8 49.2664 27.5204 48.1905 26.9613C47.1335 26.3835 46.2936 25.5634 45.6707 24.5011C45.0667 23.4387 44.7647 22.1806 44.7647 20.7269V20.4194C44.7647 18.947 45.0667 17.6889 45.6707 16.6452C46.2936 15.5828 47.1335 14.772 48.1905 14.2129C49.2664 13.6351 50.4744 13.3462 51.8146 13.3462C53.1358 13.3462 54.2589 13.5885 55.1838 14.0731C56.1276 14.5577 56.8637 15.2007 57.3922 16.0021C57.9396 16.8036 58.2888 17.6609 58.4398 18.5742L56.2597 19.0215C56.1653 18.3505 55.9388 17.7355 55.5802 17.1763C55.2404 16.6172 54.7591 16.1699 54.1362 15.8344C53.5133 15.4989 52.7489 15.3312 51.8429 15.3312C50.918 15.3312 50.0875 15.5362 49.3514 15.9462C48.6341 16.3563 48.0584 16.9434 47.6243 17.7075C47.209 18.4717 47.0014 19.3849 47.0014 20.4473V20.6989C47.0014 21.7613 47.209 22.6745 47.6243 23.4387C48.0584 24.2029 48.6341 24.79 49.3514 25.2C50.0875 25.61 50.918 25.8151 51.8429 25.8151C53.2208 25.8151 54.2684 25.4609 54.9856 24.7527C55.7217 24.0444 56.1747 23.1685 56.3446 22.1247L58.553 22.6C58.3454 23.4946 57.9679 24.3426 57.4205 25.1441C56.8731 25.9455 56.1276 26.5885 55.1838 27.0731C54.2589 27.5577 53.1358 27.8 51.8146 27.8Z" fill="#183F7B"/>
<path d="M65.9329 27.8C64.5362 27.8 63.2998 27.5111 62.2239 26.9333C61.1669 26.3556 60.3364 25.5448 59.7324 24.5011C59.1473 23.4387 58.8547 22.19 58.8547 20.7548V20.3914C58.8547 18.9749 59.1473 17.7355 59.7324 16.6731C60.3364 15.6108 61.1669 14.7907 62.2239 14.2129C63.2998 13.6351 64.5362 13.3462 65.9329 13.3462C67.3297 13.3462 68.5566 13.6351 69.6136 14.2129C70.6895 14.7907 71.52 15.6108 72.1051 16.6731C72.7091 17.7355 73.0111 18.9749 73.0111 20.3914V20.7548C73.0111 22.19 72.7091 23.4387 72.1051 24.5011C71.52 25.5448 70.6895 26.3556 69.6136 26.9333C68.5566 27.5111 67.3297 27.8 65.9329 27.8ZM65.9329 25.8151C67.4052 25.8151 68.5754 25.3584 69.4437 24.4452C70.3308 23.5133 70.7744 22.2645 70.7744 20.6989V20.4473C70.7744 18.8817 70.3308 17.6423 69.4437 16.729C68.5754 15.7971 67.4052 15.3312 65.9329 15.3312C64.4795 15.3312 63.3093 15.7971 62.4221 16.729C61.535 17.6423 61.0914 18.8817 61.0914 20.4473V20.6989C61.0914 22.2645 61.535 23.5133 62.4221 24.4452C63.3093 25.3584 64.4795 25.8151 65.9329 25.8151Z" fill="#183F7B"/>
<path d="M74.2049 27.4086V13.7376H76.385V16.0581H76.7814C77.0834 15.4057 77.593 14.8186 78.3102 14.2968C79.0464 13.7563 80.1223 13.486 81.5379 13.486C82.576 13.486 83.5009 13.7004 84.3126 14.129C85.1431 14.5577 85.8037 15.1914 86.2944 16.0301C86.7852 16.8688 87.0306 17.9032 87.0306 19.1333V27.4086H84.7939V19.3011C84.7939 17.9405 84.4447 16.9527 83.7463 16.3376C83.0668 15.7226 82.1419 15.4151 80.9716 15.4151C79.6315 15.4151 78.5367 15.8437 77.6874 16.7011C76.8569 17.5584 76.4416 18.8351 76.4416 20.5312V27.4086H74.2049Z" fill="#183F7B"/>
<path d="M93.4465 27.4086C92.6538 27.4086 92.0403 27.1943 91.6062 26.7656C91.1909 26.3369 90.9833 25.7498 90.9833 25.0043V15.6667H86.8213V13.7376H90.9833V8.87312H93.22V13.7376H97.7501V15.6667H93.22V24.6688C93.22 25.228 93.4937 25.5075 94.0411 25.5075H97.1272V27.4086H93.4465Z" fill="#183F7B"/>
<path d="M98.5417 27.4086V13.7376H100.778V27.4086H98.5417ZM99.6742 11.6129C99.1835 11.6129 98.7682 11.4545 98.4285 11.1376C98.1076 10.8208 97.9471 10.4201 97.9471 9.93548C97.9471 9.43226 98.1076 9.02222 98.4285 8.70538C98.7682 8.38853 99.1835 8.23011 99.6742 8.23011C100.165 8.23011 100.571 8.38853 100.892 8.70538C101.213 9.02222 101.373 9.43226 101.373 9.93548C101.373 10.4201 101.213 10.8208 100.892 11.1376C100.571 11.4545 100.165 11.6129 99.6742 11.6129Z" fill="#183F7B"/>
<path d="M105.368 27.4086V15.6667H101.121V13.7376H105.368V10.243C105.368 9.49749 105.576 8.91039 105.991 8.48172C106.425 8.05305 107.039 7.83871 107.832 7.83871H111.314V9.73978H108.455C107.888 9.73978 107.605 10.0194 107.605 10.5785V13.7376H111.965V15.6667H107.605V27.4086H105.368Z" fill="#183F7B"/>
<path d="M114.015 33V31.043H121.942C122.49 31.043 122.763 30.7634 122.763 30.2043V25.228H122.367C122.178 25.6194 121.886 26.0107 121.489 26.4021C121.112 26.7749 120.612 27.0824 119.989 27.3247C119.366 27.5484 118.582 27.6602 117.639 27.6602C116.638 27.6602 115.713 27.4459 114.864 27.0172C114.034 26.5885 113.373 25.9548 112.882 25.1161C112.41 24.2774 112.174 23.2523 112.174 22.0409V13.7376H114.411V21.8731C114.411 23.2151 114.751 24.1935 115.43 24.8086C116.129 25.4237 117.063 25.7312 118.233 25.7312C119.555 25.7312 120.64 25.3025 121.489 24.4452C122.339 23.5878 122.763 22.3111 122.763 20.6151V13.7376H125V30.5957C125 31.3412 124.783 31.9283 124.349 32.357C123.934 32.7857 123.32 33 122.508 33H114.015Z" fill="#183F7B"/>
<path d="M15.5086 7.72277C15.4367 7.75142 15.3649 7.78003 15.293 7.8086C14.3858 8.18561 13.5459 8.66366 12.7906 9.28836C12.7571 9.31585 12.7236 9.34335 12.689 9.37168C12.0933 9.86221 11.5749 10.3638 11.0918 10.9658C11.0628 11.0012 11.0337 11.0367 11.0038 11.0732C9.1733 13.3811 8.81635 16.1199 9.1178 18.9505C9.35829 21.2584 9.31932 23.5107 9.09746 25.8165C9.0877 25.9181 9.0877 25.9181 9.07773 26.0217C9.06544 26.1478 9.05283 26.2739 9.03984 26.4C8.92929 27.5139 9.02063 28.7429 9.67619 29.697C9.71225 29.7496 9.74831 29.8023 9.78546 29.8566C10.5424 30.9059 11.6136 31.5731 12.9003 31.7902C13.0145 31.803 13.129 31.8136 13.2436 31.8217C13.2978 31.8256 13.3519 31.8295 13.4077 31.8335C14.2509 31.8625 15.1806 31.6464 15.9015 31.2136C16.0648 31.1207 16.1352 31.0945 16.3297 31.0773C16.5719 31.167 16.706 31.2981 16.8922 31.472C18.0189 32.4491 19.6545 32.7937 21.1145 32.7163C22.784 32.566 24.2132 31.7937 25.3095 30.5547C25.3931 30.428 25.3931 30.428 25.486 30.2913C25.5913 30.2043 25.588 30.2002 25.6945 30.1948C25.9559 30.2196 26.2101 30.2778 26.4645 30.3406C27.6986 30.6447 28.8683 30.4077 29.9694 29.7898C30.2256 29.6298 30.4565 29.4467 30.6843 29.2496C30.7232 29.2165 30.7622 29.1833 30.8024 29.1492C31.6732 28.3539 32.0799 27.2169 32.1286 26.0691C32.1447 25.2542 31.9685 24.4984 31.7602 23.7142C31.737 23.6265 31.737 23.6265 31.7134 23.5372C31.6342 23.2399 31.5528 22.9434 31.4704 22.647C31.1017 21.3172 30.7702 19.9771 30.4312 18.6397C30.4012 18.5212 30.3711 18.4028 30.341 18.2843C29.9635 16.7958 29.9635 16.7958 29.7924 16.0795C29.1586 13.4267 28.1256 10.9941 25.8711 9.28836C25.8056 9.23398 25.8056 9.23398 25.7388 9.1785C24.2707 7.9624 22.2768 7.22344 20.3784 7.0518C20.334 7.04775 20.2896 7.04371 20.2438 7.03954C18.656 6.90595 16.9816 7.10529 15.5086 7.72277Z" fill="url(#paint0_linear_80_35)"/>
<path d="M15.1264 15.5927C15.7595 16.1041 16.0661 16.7077 16.1492 17.511C16.1645 18.1767 15.9858 18.8253 15.5653 19.3529C15.2421 19.6769 14.9914 19.8818 14.5248 19.933C14.105 19.8901 13.7522 19.6569 13.4701 19.3529C12.9604 18.6806 12.8834 17.9315 12.9605 17.1163C13.0658 16.5451 13.2889 16.0357 13.778 15.694C14.2219 15.4306 14.6588 15.344 15.1264 15.5927Z" fill="black"/>
<path d="M20.0931 15.8237C20.6189 16.3628 20.7988 17.0905 20.7905 17.8196C20.7301 18.5558 20.4561 19.1559 19.9132 19.6637C19.6421 19.8798 19.3678 19.9482 19.0194 19.912C18.5589 19.8102 18.2127 19.5192 17.9541 19.1362C17.5586 18.4563 17.4962 17.6327 17.6958 16.8822C17.8759 16.3211 18.1439 15.8327 18.6823 15.5446C19.1844 15.3185 19.6936 15.4878 20.0931 15.8237Z" fill="black"/>
<defs>
<linearGradient id="paint0_linear_80_35" x1="67" y1="7" x2="67" y2="33" gradientUnits="userSpaceOnUse">
<stop stop-color="white"/>
<stop offset="1" stop-color="#BBDFFD"/>
</linearGradient>
</defs>
</svg>
