<svg width="1282" height="1506" viewBox="0 0 1282 1506" fill="none" xmlns="http://www.w3.org/2000/svg">
<line opacity="0.13" x1="62.5" y1="1.27753e-08" x2="62.4999" y2="963" stroke="#093929"/>
<line opacity="0.13" x1="120.5" y1="1.61471e-08" x2="120.5" y2="1023" stroke="#093929"/>
<line opacity="0.13" x1="178.5" y1="1.61471e-08" x2="178.5" y2="1094" stroke="#093929"/>
<line opacity="0.13" x1="236.5" y1="1.61471e-08" x2="236.5" y2="1150" stroke="#093929"/>
<line opacity="0.13" x1="294.5" y1="1.61471e-08" x2="294.5" y2="1202" stroke="#093929"/>
<line opacity="0.13" x1="352.5" y1="1.61471e-08" x2="352.5" y2="1249" stroke="#093929"/>
<line opacity="0.13" x1="410.5" y1="1.61471e-08" x2="410.5" y2="1298" stroke="#093929"/>
<line opacity="0.13" x1="468.5" y1="1.61471e-08" x2="468.5" y2="1358" stroke="#093929"/>
<line opacity="0.13" x1="526.5" y1="1.61471e-08" x2="526.5" y2="1395" stroke="#093929"/>
<line opacity="0.13" x1="584.5" y1="1.61471e-08" x2="584.5" y2="1451" stroke="#093929"/>
<line opacity="0.13" x1="642.5" y1="2.18557e-08" x2="642.5" y2="1506" stroke="#093929"/>
<line opacity="0.13" x1="700.5" y1="1.61471e-08" x2="700.5" y2="1451" stroke="#093929"/>
<line opacity="0.13" x1="758.5" y1="1.61471e-08" x2="758.5" y2="1395" stroke="#093929"/>
<line opacity="0.13" x1="816.5" y1="1.61471e-08" x2="816.5" y2="1358" stroke="#093929"/>
<line opacity="0.13" x1="874.5" y1="1.61471e-08" x2="874.5" y2="1298" stroke="#093929"/>
<line opacity="0.13" x1="932.5" y1="1.61471e-08" x2="932.5" y2="1249" stroke="#093929"/>
<line opacity="0.13" x1="990.5" y1="1.61471e-08" x2="990.5" y2="1202" stroke="#093929"/>
<line opacity="0.13" x1="1048.5" y1="1.61471e-08" x2="1048.5" y2="1150" stroke="#093929"/>
<line opacity="0.13" x1="1106.5" y1="1.61471e-08" x2="1106.5" y2="1094" stroke="#093929"/>
<line opacity="0.13" x1="1164.5" y1="1.61471e-08" x2="1164.5" y2="1023" stroke="#093929"/>
<line opacity="0.13" x1="1222.5" y1="1.27753e-08" x2="1222.5" y2="963" stroke="#093929"/>
<line opacity="0.13" x1="1282" y1="78.5" x2="1" y2="78.4999" stroke="#093929"/>
<line opacity="0.13" x1="1282" y1="136.5" x2="1" y2="136.5" stroke="#093929"/>
<line opacity="0.13" x1="1281" y1="183.5" x2="-5.16609e-08" y2="183.5" stroke="#093929"/>
<line opacity="0.13" x1="1281" y1="241.5" x2="-5.16609e-08" y2="241.5" stroke="#093929"/>
<line opacity="0.13" x1="1281" y1="299.5" x2="-5.16609e-08" y2="299.5" stroke="#093929"/>
<line opacity="0.13" x1="1281" y1="357.5" x2="-5.16609e-08" y2="357.5" stroke="#093929"/>
<line opacity="0.13" x1="1281" y1="415.5" x2="-5.16609e-08" y2="415.5" stroke="#093929"/>
<line opacity="0.13" x1="1281" y1="473.5" x2="-5.16609e-08" y2="473.5" stroke="#093929"/>
<line opacity="0.13" x1="1281" y1="531.5" x2="-5.16609e-08" y2="531.5" stroke="#093929"/>
<line opacity="0.13" x1="1281" y1="589.5" x2="-5.16609e-08" y2="589.5" stroke="#093929"/>
<line opacity="0.13" x1="1281" y1="647.5" x2="-5.16609e-08" y2="647.5" stroke="#093929"/>
<line opacity="0.13" x1="1281" y1="705.5" x2="-5.16609e-08" y2="705.5" stroke="#093929"/>
<line opacity="0.13" x1="1281" y1="760.5" x2="-5.16609e-08" y2="760.5" stroke="#093929"/>
</svg>
