<svg width="478" height="759" viewBox="0 0 478 759" fill="none" xmlns="http://www.w3.org/2000/svg">
<path d="M78 758.5C37.9448 751.655 48.5124 754.136 24.9505 721.057C23.794 719.345 22.6715 717.684 21.549 716.023C1.14205 685.947 -1.70126 647.204 1.74012 612.086C2.1446 608.112 2.53704 604.137 2.91981 600.162C3.2299 596.894 3.22995 596.894 3.53391 593.691C10.4401 521.001 11.653 449.999 4.16705 377.24C-5.21693 288.005 5.89459 201.665 62.8759 128.909C63.8076 127.757 64.712 126.639 65.6163 125.521C80.6542 106.544 96.7918 90.7313 115.336 75.2675C116.411 74.3744 117.454 73.5075 118.497 72.6407C142.011 52.947 168.154 37.8765 196.393 25.9913C198.631 25.0906 200.869 24.1885 203.106 23.2853C248.959 3.81941 301.08 -2.46501 350.508 1.74653C351.933 1.87792 353.315 2.00545 354.698 2.13298C413.792 7.54389 431.799 19.0336 477.5 57.371" stroke="#F5F5F5"/>
<path d="M169.997 267.426C176.827 266.698 183.752 267.947 190.93 271.802C210.495 287.824 219.97 306.712 222.547 331.885C223.018 352.76 217.487 373.074 204.496 389.59C194.48 399.758 186.788 406.106 172.477 407.709C159.604 406.36 148.75 399.112 140.033 389.603C124.291 368.561 121.89 345.108 124.28 319.485C127.548 301.559 134.448 285.66 149.507 274.998C156.371 270.875 163.151 268.156 169.997 267.426Z" stroke="#F5F5F5"/>
<path d="M302.122 270.317C317.501 263.312 333.132 268.532 345.473 279.034C361.697 295.892 367.278 318.665 367.026 341.555C365.154 364.638 356.681 383.432 339.888 399.345C331.572 406.054 323.18 408.179 312.47 407.056C298.315 403.878 287.652 394.816 279.658 382.831C267.619 361.863 265.555 336.52 271.39 313.269L271.675 312.163C277.263 294.543 285.548 279.307 302.122 270.317Z" stroke="#F5F5F5"/>
</svg>
